<?xml version="1.0" encoding="UTF-8" standalone="no"?><!DOCTYPE svg PUBLIC "-//W3C//DTD SVG 1.1//EN" "http://www.w3.org/Graphics/SVG/1.1/DTD/svg11.dtd"><svg width="100%" height="100%" viewBox="0 0 3600 1086" version="1.1" xmlns="http://www.w3.org/2000/svg" xmlns:xlink="http://www.w3.org/1999/xlink" xml:space="preserve" xmlns:serif="http://www.serif.com/" style="fill-rule:evenodd;clip-rule:evenodd;stroke-linejoin:round;stroke-miterlimit:2;"><g><path d="M2546.92,318.838c0.168,-0.082 0.352,-0.125 0.539,-0.125c0.672,0 1.226,0.554 1.226,1.227c-0,0.236 -0.068,0.467 -0.196,0.665c-53.847,82.701 -136.04,139.733 -230.984,165.893c-30.438,8.376 -65.682,12.793 -105.733,13.251c-115.443,1.326 -224.805,-30.626 -329.9,-75.387c-62.25,-26.537 -119.743,-49.016 -172.478,-67.437c-132.951,-46.431 -288.069,-55.069 -421.216,-11.436c-88.323,28.958 -167.426,76.517 -234.564,140.272c-0.253,0.23 -0.582,0.358 -0.924,0.358c-0.753,0 -1.373,-0.62 -1.373,-1.374c0,-0.209 0.048,-0.415 0.139,-0.603c26.286,-50.848 67.138,-98.456 111.373,-138.113c92.099,-82.652 198.176,-139.684 318.229,-171.095c79.643,-20.86 156.49,-27.387 237.212,-24.148c91.577,3.697 181.028,25.244 268.354,64.639c67.971,30.627 175.666,86.088 268.893,117.303c92.835,31.068 202.982,29.596 291.403,-13.89Z" style="fill:url(#_Linear1);fill-rule:nonzero;"/><path d="M343.619,925.284c-39.557,0 -73.834,-7.143 -102.832,-21.431c-28.998,-14.287 -51.379,-34.528 -67.142,-60.722c-15.763,-26.194 -23.645,-57.001 -23.645,-92.422c-0,-34.529 7.882,-64.741 23.645,-90.637c15.763,-25.896 37.846,-46.062 66.25,-60.499c28.403,-14.436 61.639,-21.654 99.709,-21.654c11.599,-0 21.191,0.372 28.775,1.116c7.584,0.744 14.35,1.563 20.299,2.456c5.948,0.893 12.566,1.711 19.852,2.455c7.287,0.745 16.433,1.117 27.437,1.117l13.384,89.297l-4.461,-0c-5.354,-28.278 -17.325,-50.453 -35.913,-66.527c-18.589,-16.073 -41.713,-24.11 -69.373,-24.11c-16.953,0 -32.419,4.019 -46.397,12.055c-13.979,8.037 -25.876,19.199 -35.69,33.487c-9.815,14.585 -17.474,32.147 -22.976,52.685c-5.502,20.538 -8.253,43.309 -8.253,68.312c-0,25.301 2.602,48.295 7.807,68.982c5.205,20.687 12.417,38.323 21.637,52.909c9.517,14.585 20.894,25.896 34.129,33.932c13.235,8.037 28.031,12.056 44.389,12.056c12.195,-0 23.868,-2.084 35.021,-6.251c11.153,-4.167 19.704,-9.376 25.653,-15.627l-0,-113.854c-0,-10.716 -3.272,-19.348 -9.815,-25.896c-6.543,-6.548 -15.168,-9.823 -25.876,-9.823l-1.338,0l0,-4.465l143.653,0l-0,4.465l-1.785,0c-10.707,0 -19.332,3.275 -25.875,9.823c-6.543,6.548 -9.815,15.18 -9.815,25.896l0,113.854c-5.948,5.953 -15.391,11.088 -28.329,15.404c-12.937,4.316 -27.511,7.664 -43.72,10.045c-16.209,2.382 -32.344,3.572 -48.405,3.572Z" style="fill:#e4ab14;fill-rule:nonzero;"/><path d="M634.494,925.284c-24.389,0 -45.728,-4.911 -64.019,-14.734c-18.292,-9.822 -32.493,-23.663 -42.606,-41.523c-10.112,-17.859 -15.168,-38.993 -15.168,-63.401c0,-24.408 5.056,-45.541 15.168,-63.401c10.113,-17.859 24.314,-31.7 42.606,-41.523c18.291,-9.822 39.63,-14.734 64.019,-14.734c24.388,0 45.653,4.912 63.796,14.734c18.142,9.823 32.27,23.664 42.382,41.523c10.112,17.86 15.168,38.993 15.168,63.401c0,24.408 -5.056,45.542 -15.168,63.401c-10.112,17.86 -24.24,31.701 -42.382,41.523c-18.143,9.823 -39.408,14.734 -63.796,14.734Zm-0.446,-5.804c10.409,0 19.332,-5.209 26.767,-15.627c7.436,-10.418 13.235,-24.333 17.399,-41.746c4.164,-17.413 6.246,-36.389 6.246,-56.927c-0,-22.324 -2.156,-42.044 -6.469,-59.159c-4.312,-17.116 -10.261,-30.51 -17.845,-40.184c-7.584,-9.674 -16.135,-14.511 -25.652,-14.511c-10.112,0 -18.961,5.209 -26.545,15.627c-7.584,10.418 -13.458,24.259 -17.622,41.523c-4.164,17.264 -6.246,36.166 -6.246,56.704c0,22.622 2.231,42.565 6.692,59.829c4.462,17.264 10.484,30.659 18.068,40.184c7.585,9.525 15.987,14.287 25.207,14.287Z" style="fill:#e4ab14;fill-rule:nonzero;"/><path d="M759.409,919.034l0,-4.465c10.707,-0 19.407,-3.2 26.099,-9.6c6.692,-6.399 10.037,-15.106 10.037,-26.119l0,-254.497c0,-10.715 -3.345,-19.347 -10.037,-25.896c-6.692,-6.548 -15.392,-9.822 -26.099,-9.822l0,-4.465l45.505,-0c15.168,-0 26.768,-1.637 34.798,-4.912c7.435,-3.274 12.64,-7.292 15.614,-12.055l4.462,0l-0,311.647c-0,11.013 3.346,19.72 10.038,26.119c6.692,6.4 15.391,9.6 26.098,9.6l0,4.465l-136.515,-0Z" style="fill:#e4ab14;fill-rule:nonzero;"/><path d="M1060.55,936l-0.446,-63.401c-7.138,15.478 -17.845,28.203 -32.121,38.175c-14.276,9.971 -29.594,14.957 -45.952,14.957c-16.06,-0 -30.485,-5.06 -43.274,-15.181c-12.789,-10.12 -22.901,-24.035 -30.336,-41.746c-7.436,-17.711 -11.154,-37.728 -11.154,-60.052c0,-25.003 4.685,-46.732 14.053,-65.187c9.369,-18.455 22.381,-32.668 39.036,-42.639c16.656,-9.972 35.839,-14.958 57.551,-14.958c12.194,0 22.157,1.861 29.89,5.581c7.733,3.721 14.723,10.046 20.968,18.976l0,-86.172c0,-10.715 -3.346,-19.347 -10.038,-25.896c-6.691,-6.548 -15.391,-9.822 -26.098,-9.822l0,-4.465l45.505,-0c14.871,-0 26.173,-1.489 33.906,-4.465c7.732,-2.977 13.235,-7.144 16.506,-12.502l4.462,0l-0,311.647c-0,10.716 3.271,19.348 9.814,25.896c6.544,6.548 15.317,9.823 26.322,9.823l-0,4.465l-45.505,-0c-13.086,-0 -23.422,1.339 -31.006,4.018c-7.584,2.679 -13.458,6.995 -17.622,12.948l-4.461,0Zm-53.982,-28.129c6.841,0 13.756,-2.158 20.745,-6.474c6.99,-4.316 13.31,-10.046 18.961,-17.189c5.651,-7.144 9.815,-14.734 12.491,-22.771l0,-108.942c-1.487,-17.86 -5.874,-32.147 -13.16,-42.863c-7.287,-10.716 -16.73,-16.073 -28.329,-16.073c-15.466,-0 -27.512,9.822 -36.137,29.468c-8.327,19.645 -12.491,48.666 -12.491,87.064c-0,65.187 12.64,97.78 37.92,97.78Z" style="fill:#e4ab14;fill-rule:nonzero;"/><path d="M1264.87,924.391c-20.522,0 -38.739,-5.06 -54.651,-15.18c-15.911,-10.12 -28.329,-24.185 -37.251,-42.193c-8.923,-18.008 -13.384,-38.621 -13.384,-61.838c-0,-23.813 4.907,-44.649 14.722,-62.508c9.815,-17.859 23.273,-31.775 40.375,-41.746c17.101,-9.972 36.508,-14.958 58.219,-14.958c18.143,0 34.278,3.572 48.405,10.716c14.127,7.144 25.429,17.19 33.906,30.138c8.476,12.948 13.309,27.905 14.499,44.871l0.446,6.698l-149.899,-0l0,2.232c0,31.552 6.99,56.778 20.968,75.679c13.979,18.902 32.716,28.352 56.212,28.352c14.276,0 27.883,-3.497 40.821,-10.492c12.937,-6.995 23.421,-16.446 31.452,-28.352l4.015,1.339c-5.056,15.181 -12.938,28.576 -23.645,40.184c-10.707,11.609 -23.347,20.687 -37.921,27.236c-14.573,6.548 -30.336,9.822 -47.289,9.822Zm-44.167,-152.698l90.564,0c0,-23.514 -3.792,-42.564 -11.376,-57.15c-7.584,-14.585 -18.217,-21.877 -31.898,-21.877c-13.087,-0 -23.942,7.143 -32.567,21.431c-8.626,14.287 -13.533,33.486 -14.723,57.596Z" style="fill:#e4ab14;fill-rule:nonzero;"/><path d="M1375.96,919.034l0,-4.465l0.447,-0c10.707,-0 19.332,-3.275 25.875,-9.823c6.543,-6.548 9.815,-15.18 9.815,-25.896l-0,-146.447c-0,-11.311 -2.305,-20.092 -6.915,-26.343c-4.61,-6.251 -14.351,-9.376 -29.222,-9.376l0,-4.465l44.167,0c15.168,0 26.768,-1.637 34.798,-4.911c7.435,-3.274 12.64,-7.293 15.614,-12.055l4.462,-0l0.446,62.508c7.733,-15.479 19.481,-27.98 35.244,-37.505c15.763,-9.525 32.418,-14.288 49.966,-14.288c19.927,0 35.913,6.549 47.959,19.646c12.045,13.097 18.068,30.361 18.068,51.792l-0,121.444c-0,10.716 3.271,19.348 9.815,25.896c6.543,6.548 15.168,9.823 25.875,9.823l0.446,-0l0,4.465l-136.069,-0l0,-4.465l0.446,-0c10.708,-0 19.333,-3.275 25.876,-9.823c6.543,-6.548 9.815,-15.18 9.815,-25.896l-0,-125.909c-0,-14.883 -2.9,-26.789 -8.7,-35.719c-5.8,-8.929 -13.458,-13.394 -22.975,-13.394c-9.22,-0 -18.812,3.944 -28.776,11.832c-9.963,7.887 -18.663,18.529 -26.098,31.923l0,131.267c0,10.716 3.272,19.348 9.815,25.896c6.543,6.548 15.168,9.823 25.875,9.823l0.446,-0l0,4.465l-136.515,-0Z" style="fill:#e4ab14;fill-rule:nonzero;"/><path d="M1867.59,925.284c-38.664,0 -72.57,-7.218 -101.717,-21.654c-29.147,-14.437 -51.825,-34.752 -68.034,-60.945c-16.209,-26.194 -24.314,-56.704 -24.314,-91.53c0,-35.123 8.105,-65.633 24.314,-91.529c16.209,-25.896 39.185,-45.988 68.927,-60.276c29.741,-14.287 64.985,-21.431 105.732,-21.431c9.814,-0 17.993,0.372 24.537,1.116c6.543,0.744 12.64,1.563 18.291,2.456c5.651,0.893 12.12,1.711 19.406,2.455c7.287,0.745 16.433,1.117 27.437,1.117l13.384,89.297l-4.461,-0c-3.272,-17.562 -9.741,-33.115 -19.407,-46.658c-9.666,-13.543 -21.711,-24.259 -36.136,-32.147c-14.425,-7.888 -30.411,-11.832 -47.959,-11.832c-17.25,0 -33.162,4.167 -47.735,12.502c-14.574,8.334 -27.065,19.943 -37.475,34.826c-10.41,15.18 -18.514,33.263 -24.314,54.248c-5.8,20.984 -8.699,43.978 -8.699,68.982c-0,33.039 5.056,61.838 15.168,86.394c10.112,24.557 24.388,43.607 42.828,57.151c18.44,13.543 40.152,20.315 65.135,20.315c28.552,-0 52.122,-8.558 70.711,-25.673c18.588,-17.116 30.113,-41.003 34.575,-71.661l4.461,-0l-12.938,96.441c-13.979,-0 -26.321,0.669 -37.028,2.009c-10.707,1.339 -21.043,2.679 -31.006,4.018c-9.964,1.34 -21.191,2.009 -33.683,2.009Z" style="fill:#0029d7;fill-rule:nonzero;"/><path d="M2120.99,925.284c-24.388,0 -45.728,-4.911 -64.019,-14.734c-18.291,-9.822 -32.493,-23.663 -42.605,-41.523c-10.112,-17.859 -15.168,-38.993 -15.168,-63.401c-0,-24.408 5.056,-45.541 15.168,-63.401c10.112,-17.859 24.314,-31.7 42.605,-41.523c18.291,-9.822 39.631,-14.734 64.019,-14.734c24.389,0 45.654,4.912 63.796,14.734c18.143,9.823 32.27,23.664 42.382,41.523c10.113,17.86 15.169,38.993 15.169,63.401c-0,24.408 -5.056,45.542 -15.169,63.401c-10.112,17.86 -24.239,31.701 -42.382,41.523c-18.142,9.823 -39.407,14.734 -63.796,14.734Zm-0.446,-5.804c10.41,0 19.332,-5.209 26.768,-15.627c7.435,-10.418 13.235,-24.333 17.399,-41.746c4.164,-17.413 6.245,-36.389 6.245,-56.927c0,-22.324 -2.156,-42.044 -6.468,-59.159c-4.313,-17.116 -10.261,-30.51 -17.845,-40.184c-7.585,-9.674 -16.135,-14.511 -25.653,-14.511c-10.112,0 -18.96,5.209 -26.544,15.627c-7.584,10.418 -13.458,24.259 -17.622,41.523c-4.164,17.264 -6.246,36.166 -6.246,56.704c-0,22.622 2.231,42.565 6.692,59.829c4.461,17.264 10.484,30.659 18.068,40.184c7.584,9.525 15.986,14.287 25.206,14.287Z" style="fill:#0029d7;fill-rule:nonzero;"/><path d="M2248.58,919.034l-0,-4.465l0.446,-0c10.707,-0 19.332,-3.275 25.875,-9.823c6.543,-6.548 9.815,-15.18 9.815,-25.896l-0,-146.447c-0,-11.311 -2.305,-20.092 -6.915,-26.343c-4.61,-6.251 -14.351,-9.376 -29.221,-9.376l-0,-4.465l44.166,0c12.194,0 21.637,-0.595 28.329,-1.786c6.692,-1.19 11.674,-2.753 14.945,-4.688c3.272,-1.935 5.651,-3.944 7.138,-6.027l4.462,-0l0.446,58.043c7.733,-15.479 19.481,-27.98 35.244,-37.505c15.763,-9.525 32.418,-14.288 49.966,-14.288c16.953,0 31.08,4.763 42.382,14.288c11.302,9.525 18.589,22.324 21.86,38.398c8.328,-16.074 20.299,-28.873 35.913,-38.398c15.615,-9.525 32.493,-14.288 50.636,-14.288c19.927,0 35.913,6.549 47.958,19.646c12.046,13.097 18.069,30.361 18.069,51.792l-0,121.444c-0,10.716 3.271,19.348 9.814,25.896c6.544,6.548 15.169,9.823 25.876,9.823l0.446,-0l-0,4.465l-136.069,-0l0,-4.465l0.446,-0c10.707,-0 19.333,-3.275 25.876,-9.823c6.543,-6.548 9.814,-15.18 9.814,-25.896l0,-125.909c0,-14.883 -2.974,-26.789 -8.922,-35.719c-5.948,-8.929 -13.681,-13.394 -23.199,-13.394c-9.22,-0 -18.886,4.093 -28.998,12.278c-10.112,8.186 -18.886,18.827 -26.321,31.924c0.297,0.595 0.446,1.339 0.446,2.232l-0,128.588c-0,10.716 3.271,19.348 9.815,25.896c6.543,6.548 15.168,9.823 25.875,9.823l0.446,-0l0,4.465l-136.069,-0l0,-4.465l0.446,-0c10.708,-0 19.333,-3.275 25.876,-9.823c6.543,-6.548 9.815,-15.18 9.815,-25.896l-0,-125.909c-0,-14.883 -2.9,-26.789 -8.7,-35.719c-5.799,-8.929 -13.458,-13.394 -22.975,-13.394c-9.22,-0 -18.812,3.944 -28.776,11.832c-9.963,7.887 -18.663,18.529 -26.098,31.923l0,131.267c0,10.716 3.272,19.348 9.815,25.896c6.543,6.548 15.168,9.823 25.875,9.823l0.446,-0l0,4.465l-136.514,-0Z" style="fill:#0029d7;fill-rule:nonzero;"/><path d="M2680.43,919.034l0,-4.465c10.707,-0 19.407,-3.275 26.099,-9.823c6.692,-6.548 10.038,-15.18 10.038,-25.896l-0,-178.594l-37.921,-0l4.461,-8.037l33.46,0l-0,-10.269c-0,-22.622 3.792,-42.193 11.376,-58.713c7.584,-16.52 18.365,-29.393 32.344,-38.621c13.979,-9.227 30.485,-13.841 49.52,-13.841c13.086,0 25.504,2.009 37.252,6.028c11.748,4.018 21.86,9.525 30.336,16.52c8.477,6.995 14.499,15.106 18.068,24.333l-53.535,30.361c-0.297,-10.716 -1.115,-20.389 -2.454,-29.021c-1.338,-8.632 -3.494,-16.223 -6.468,-22.771c-5.949,-13.097 -13.533,-19.646 -22.753,-19.646c-9.517,0 -16.655,7.293 -21.414,21.878c-5.353,14.585 -8.03,34.528 -8.03,59.829l-0,33.933l60.227,0l-4.461,8.037l-55.766,-0l-0,178.594c-0,10.716 4.089,19.348 12.268,25.896c8.179,6.548 18.961,9.823 32.344,9.823l0.447,-0l-0,4.465l-145.438,-0Z" style="fill:#0029d7;fill-rule:nonzero;"/><path d="M2952.12,925.284c-24.388,0 -45.728,-4.911 -64.019,-14.734c-18.291,-9.822 -32.493,-23.663 -42.605,-41.523c-10.112,-17.859 -15.168,-38.993 -15.168,-63.401c-0,-24.408 5.056,-45.541 15.168,-63.401c10.112,-17.859 24.314,-31.7 42.605,-41.523c18.291,-9.822 39.631,-14.734 64.019,-14.734c24.389,0 45.654,4.912 63.797,14.734c18.142,9.823 32.269,23.664 42.382,41.523c10.112,17.86 15.168,38.993 15.168,63.401c-0,24.408 -5.056,45.542 -15.168,63.401c-10.113,17.86 -24.24,31.701 -42.382,41.523c-18.143,9.823 -39.408,14.734 -63.797,14.734Zm-0.446,-5.804c10.41,0 19.333,-5.209 26.768,-15.627c7.435,-10.418 13.235,-24.333 17.399,-41.746c4.164,-17.413 6.246,-36.389 6.246,-56.927c-0,-22.324 -2.157,-42.044 -6.469,-59.159c-4.313,-17.116 -10.261,-30.51 -17.845,-40.184c-7.584,-9.674 -16.135,-14.511 -25.653,-14.511c-10.112,0 -18.96,5.209 -26.544,15.627c-7.584,10.418 -13.458,24.259 -17.622,41.523c-4.164,17.264 -6.246,36.166 -6.246,56.704c0,22.622 2.231,42.565 6.692,59.829c4.461,17.264 10.484,30.659 18.068,40.184c7.584,9.525 15.986,14.287 25.206,14.287Z" style="fill:#0029d7;fill-rule:nonzero;"/><path d="M3079.72,919.034l-0,-4.465l0.446,-0c10.707,-0 19.332,-3.275 25.875,-9.823c6.543,-6.548 9.815,-15.18 9.815,-25.896l0,-146.447c0,-11.311 -2.305,-20.092 -6.915,-26.343c-4.61,-6.251 -14.35,-9.376 -29.221,-9.376l-0,-4.465l44.166,0c15.763,0 27.66,-1.563 35.69,-4.688c8.031,-3.125 13.682,-7.218 16.953,-12.278l2.231,-0l0.446,73.223c3.866,-8.929 8.848,-18.306 14.945,-28.128c6.097,-9.823 13.83,-18.083 23.199,-24.78c9.369,-6.698 20.596,-10.046 33.682,-10.046c4.462,-0 9.22,0.446 14.277,1.339c5.056,0.893 10.409,2.53 16.06,4.912l-17.399,52.238c-10.707,-5.953 -20.001,-10.12 -27.883,-12.501c-7.881,-2.381 -14.796,-3.572 -20.745,-3.572c-10.112,-0 -17.622,3.125 -22.529,9.376c-4.907,6.251 -9.146,13.692 -12.715,22.324l0,119.212c0,10.716 3.272,19.348 9.815,25.896c6.543,6.548 15.168,9.823 25.875,9.823l0.447,-0l-0,4.465l-136.515,-0Z" style="fill:#0029d7;fill-rule:nonzero;"/><path d="M3375.94,925.284c-15.466,0 -28.106,-4.911 -37.921,-14.734c-9.815,-9.822 -14.722,-22.622 -14.722,-38.397l-0,-171.897l-37.921,-0l0,-5.804c20.522,-1.489 38.888,-8.037 55.097,-19.646c16.209,-11.608 29.519,-27.235 39.928,-46.881l7.138,0l0,64.294l59.335,0l-4.461,8.037l-54.874,-0l0,162.074c0,23.812 8.031,35.719 24.091,35.719c5.354,-0 11.525,-1.637 18.514,-4.912c6.99,-3.274 13.607,-7.59 19.853,-12.948l-0,4.465c-9.815,12.502 -21.414,22.399 -34.798,29.691c-13.384,7.293 -26.47,10.939 -39.259,10.939Z" style="fill:#0029d7;fill-rule:nonzero;"/></g><defs><linearGradient id="_Linear1" x1="0" y1="0" x2="1" y2="0" gradientUnits="userSpaceOnUse" gradientTransform="matrix(1497.37,0,0,349.789,1051.32,324.895)"><stop offset="0" style="stop-color:#e4ab14;stop-opacity:1"/><stop offset="1" style="stop-color:#ffeebe;stop-opacity:1"/></linearGradient></defs></svg>